PathFileType	4	(X/Y/Z)	C:/Users/beibeiliu/ov580/test_trc\sequence.14_training_dense_left.trc
DataRate	CameraRate	NumFrames	NumMarkers	Units	OrigDataRate	OrigDataStartFrame	OrigNumFrames
120	120	21	19	mm	120	192	383
Frame#	Time	ThumbCMC			ThumbMCP			ThumbIP			ThumbTip			IndexMCP			IndexPIP			IndexTip			MiddleMCP			MiddlePIP			MiddleTip			RingMCP			RingPIP			RingTip			PinkyMCP			PinkyPIP			PinkyTip			BackHand1			BackHand2			BackHand3	
		X0	Y0	Z0	X1	Y1	Z1	X2	Y2	Z2	X3	Y3	Z3	X4	Y4	Z4	X5	Y5	Z5	X6	Y6	Z6	X7	Y7	Z7	X8	Y8	Z8	X9	Y9	Z9	X10	Y10	Z10	X11	Y11	Z11	X12	Y12	Z12	X13	Y13	Z13	X14	Y14	Z14	X15	Y15	Z15	X16	Y16	Z16	X17	Y17	Z17	X18	Y18	Z18	
191	1.59167	-236.077	47.1582	-3.28482	-210.548	45.8881	11.6105	-188.927	40.6828	16.1154	-168.689	26.594	18.5457	-188.986	28.3778	-32.5842	-172.01	24.4586	-9.34154	-190.027	24.3367	13.4727	-189.378	7.44529	-29.4336	-171.781	3.87081	-5.96549	-182.716	12.1312	25.4425	-194.309	-5.25848	-20.1656	-184.358	-3.62984	5.77731	-194.442	7.79404	26.6452	-209.169	-17.1639	-11.1772	-197.932	-10.6209	7.69295	-203.798	12.238	21.1386	-246.19	-0.510531	-30.7226	-268.697	7.94255	-20.0141	-254.385	28.4964	-26.6698	
192	1.6	-235.531	51.474	-1.37841	-206.076	49.2201	11.5167	-184.558	42.8826	14.9693	-162.282	33.0931	22.2528	-183.495	32.8862	-32.9017	-169.605	27.823	-11.736	-188.219	33.2409	14.5225	-186.766	11.135	-29.8808	-168.071	9.53189	-5.17921	-177.899	16.9081	23.7036	-190.069	-4.84125	-17.9379	-177.527	1.64094	6.21462	-188.441	17.1803	26.2758	-203.723	-18.7552	-7.81994	-192.248	-8.33591	10.1614	-197.814	12.4241	25.0287	-242.754	0.183658	-27.3886	-267.077	9.96789	-16.4385	-250.3	29.2515	-26.9989	
193	1.60833	-235.757	52.0447	-2.26911	-206.321	48.619	11.8298	-180.901	46.0201	15.9858	-161	39.0223	23.4359	-179.499	36.3633	-32.4892	-166.436	36.7772	-9.79149	-184.043	33.8023	14.9085	-177.441	15.6539	-27.4508	-162.855	16.0766	-4.64858	-177.866	22.8163	23.3923	-182.778	-1.71868	-15.6969	-172.228	8.17425	6.91425	-180.368	17.8198	26.2876	-197.021	-12.7902	-9.71257	-185.031	-3.75143	11.246	-193.15	18.5316	26.7348	-233.375	-2.6193	-27.3964	-261.771	1.73819	-17.668	-245.728	28.7279	-28.1473	
194	1.61667	-230.218	48.3898	-4.82582	-202.718	53.7419	10.524	-182.713	50.0795	16.7807	-161.022	37.6615	21.2636	-177.614	36.8144	-32.6136	-163.653	40.5774	-7.17686	-178.305	41.8826	13.6408	-174.524	19.2373	-28.1712	-158.932	23.2455	-1.21819	-175.676	27.4007	22.4619	-180.246	1.53763	-16.4275	-167.01	10.4899	5.94275	-176.925	25.9172	29.5833	-189.786	-11.7915	-6.88906	-179.406	3.81784	11.9324	-186.699	22.2721	25.1004	-230.101	-3.36844	-25.4527	-254.867	1.73731	-14.5407	-243.857	24.2004	-27.357	
195	1.625	-231.043	48.0554	-4.504	-203.286	52.9975	9.79393	-177.771	52.2739	15.2027	-159.816	42.7527	24.1671	-177.102	37.7505	-34.6782	-160.367	41.263	-7.53675	-177.613	42.4813	13.5482	-169.677	18.6082	-27.68	-154.901	22.5309	-4.06059	-176.651	32.877	22.5533	-175.873	0.733136	-14.0524	-162.822	11.5704	7.39073	-170.63	25.1705	27.9721	-183.244	-9.33289	-4.3941	-173.92	3.24062	9.70111	-184.125	24.809	23.2905	-224.771	-4.39696	-26.2859	-247.989	0.0406762	-16.5682	-236.225	21.2289	-30.6509	
196	1.63333	-227.148	44.6427	-6.35103	-201.596	51.9105	9.27821	-177.709	52.3626	17.0816	-152.649	39.9036	24.2761	-173.663	37.4696	-34.7653	-158.32	39.3188	-11.8765	-175.86	39.7798	13.6225	-169.974	16.4441	-28.6467	-154.156	22.8311	-0.520717	-174.945	35.2791	21.9993	-171.498	1.58207	-14.6241	-160.74	17.2948	7.21669	-169.661	28.299	26.7478	-181.682	-9.89368	-5.29225	-171.808	3.85901	11.6692	-183.153	22.1648	24.7995	-222.204	-7.18468	-25.0646	-248.086	-3.71072	-16.6255	-237.254	23.1563	-29.4886	
197	1.64167	-223.289	48.3904	-7.8084	-198.386	50.4869	9.47181	-172.596	46.7374	15.7017	-151.815	38.5888	24.8831	-168.501	35.4368	-33.8086	-156.527	36.8019	-7.47616	-173.497	40.1046	12.5756	-167.187	11.9813	-28.0571	-151.199	22.8376	-5.34894	-172.142	32.4714	21.5579	-170.766	-0.036276	-15.9823	-159.561	12.4882	5.13184	-168.853	22.0115	27.0131	-180.508	-12.2871	-5.76228	-172.599	1.36725	12.03	-181.043	19.8362	23.254	-220.273	-5.23552	-26.9513	-248.04	-1.3069	-14.8261	-231.695	20.3691	-30.9141	
198	1.65	-222.762	48.93	-6.06779	-194.318	45.0802	8.90136	-172.977	43.8169	16.6036	-150.261	31.5433	22.9157	-169.882	29.8758	-34.4224	-153.421	34.4102	-9.67806	-172.334	33.2407	12.9706	-163.54	7.50679	-27.1332	-151.423	13.3002	-0.694765	-170.509	26.1969	20.7013	-173.005	-7.66318	-16.4749	-160.084	2.84428	8.2995	-167.923	17.7016	24.7378	-184.628	-18.7065	-6.80646	-174.328	-5.10761	12.4669	-183.962	14.298	23.1013	-219.686	-7.64276	-29.2529	-246.441	0.84527	-18.1288	-233.859	22.0204	-31.1708	
199	1.65833	-218.415	41.7524	-6.84278	-190.009	39.4582	7.48066	-165.871	35.3218	15.1776	-151.381	23.7133	21.6676	-166.051	21.5465	-33.7489	-153.218	23.1926	-10.0624	-172.128	28.8326	12.8489	-165.294	3.95466	-29.5801	-152.37	4.66669	-5.03395	-169.363	14.2958	20.18	-175.169	-10.6233	-18.3848	-163.11	-3.09437	4.71116	-172.636	9.81053	26.7093	-184.634	-23.1271	-4.6833	-177.765	-10.58	9.5183	-188.732	7.31489	22.722	-221.806	-3.93683	-30.6225	-249.012	1.45931	-20.3257	-229.732	25.6108	-34.8224	
200	1.66667	-214.787	41.5024	-6.50859	-187.481	35.0011	8.11476	-165.34	28.2091	15.9559	-152.182	10.0462	19.3831	-165.178	13.2186	-33.5497	-152.038	13.595	-11.0217	-171.462	21.5968	12.9668	-172.902	-6.56897	-30.3943	-154.152	-2.52138	-1.90593	-174.855	5.1335	19.3105	-181.356	-15.3029	-20.9707	-168.033	-14.0274	3.71342	-176.831	3.24076	25.0268	-193.732	-27.0775	-10.5364	-183.919	-17.2172	9.21023	-193.017	3.68886	23.165	-228.965	-5.49346	-30.4598	-252.575	3.53602	-21.3306	-234.158	23.2697	-32.0625	
201	1.675	-210.58	40.2131	-5.54436	-186.247	32.9028	12.0801	-168.471	19.2148	16.0397	-155.514	-1.45411	20.8375	-169.637	4.29244	-33.5345	-156.218	-1.47941	-7.16524	-172.115	9.0491	11.0248	-173.823	-12.1411	-30.8579	-162.746	-14.9602	-0.377521	-182.055	-1.53177	18.0434	-186.584	-27.5415	-19.192	-178.432	-22.7639	8.23782	-190.004	-4.26577	25.6928	-201.76	-33.8363	-10.8217	-193.207	-22.4571	11.9321	-200.506	-2.17058	18.8894	-229.061	-5.47497	-35.4029	-253.706	12.1256	-24.1482	-231.863	27.185	-33.4194	
202	1.68333	-211.227	39.2748	-3.53826	-187.17	19.1284	7.30133	-171.141	4.51398	13.7888	-160.839	-16.5604	19.9949	-171.746	-1.15162	-34.0173	-159.604	-12.8897	-7.50642	-179.333	-2.20446	9.61948	-180.997	-18.6273	-31.0807	-171.71	-23.9931	0.944006	-194.77	-8.68804	13.7545	-193.77	-28.6917	-21.8898	-187.643	-28.0325	3.32144	-200.694	-8.29755	18.0356	-210.534	-34.6996	-11.681	-205.599	-27.1589	7.09485	-212.277	-2.42942	14.6279	-230.4	-1.31847	-37.9299	-252.111	17.8811	-30.1151	-225.275	26.163	-34.5612	
203	1.69167	-206.168	33.0683	-4.10668	-186.294	10.2825	10.0525	-174.825	-9.58633	14.0637	-174.378	-30.8305	13.6242	-177.714	-13.4887	-34.0698	-168.572	-26.494	-9.92045	-190.055	-10.9376	7.03176	-191.123	-26.3148	-31.0177	-186.878	-33.1258	-0.397354	-204.132	-8.57993	7.53859	-209.362	-34.9445	-23.5309	-205.69	-28.4327	5.29867	-220.356	-5.41481	10.4459	-226.059	-33.4775	-18.795	-221.793	-22.3998	5.04567	-225.463	-0.42762	5.3451	-235.84	-0.689682	-41.9351	-256.01	21.8226	-33.0311	-221.224	29.3164	-34.1903	
204	1.7	-208.874	26.4626	-4.83933	-192.09	0.969312	8.01264	-188.523	-18.8566	10.1728	-188.975	-46.2989	8.01455	-181.804	-23.7981	-33.0155	-188.128	-38.2027	-10.9087	-202.987	-14.3274	1.63262	-204.606	-33.9323	-33.4073	-204.764	-42.153	-4.87445	-219.911	-12.6554	0.556532	-219.869	-35.0615	-26.6753	-221.626	-29.1403	1.44218	-230.006	-6.24281	1.95341	-239.298	-31.5561	-22.3388	-236.538	-20.3122	0.792465	-238.592	4.53515	1.08696	-237.608	6.52638	-43.572	-250.692	29.8689	-32.9898	-222.458	29.9811	-34.6516	
205	1.70833	-205.722	20.3223	-1.45082	-200.177	-6.42187	8.78607	-198.928	-33.2675	5.24237	-203.25	-55.3315	5.07381	-196.679	-27.3381	-37.435	-198.757	-43.9655	-12.6876	-212.067	-20.1969	-0.675162	-214.697	-35.7959	-36.6461	-221.725	-45.5554	-8.54133	-226.761	-12.2741	-3.31265	-236.398	-37.952	-27.869	-235.852	-30.152	-0.686202	-233.316	-4.98392	-1.63962	-248.253	-28.4123	-20.5498	-246.129	-16.8082	-0.906112	-238.758	5.82328	-0.860452	-242.24	11.5035	-44.4408	-254.631	34.5255	-30.6423	-224.001	29.1984	-32.6375	
206	1.71667	-209.402	13.3372	-2.57199	-209.8	-15.4235	5.73408	-213.707	-38.7542	2.63542	-221.916	-63.746	0.0932309	-213.034	-31.8605	-41.8943	-215.558	-47.2179	-16.4734	-219.249	-21.8398	-2.63499	-229.3	-36.6191	-39.4501	-236.852	-45.2816	-12.8137	-231.685	-15.5189	-4.16885	-250.388	-31.3329	-31.8672	-244.203	-30.5358	-3.9722	-241.803	-1.32567	-5.01334	-261.991	-19.8411	-24.0359	-251.205	-13.137	-1.35974	-238.967	11.1906	-4.12879	-246.544	16.7597	-41.9265	-252.946	42.9395	-25.2755	-221.826	27.1832	-30.8177	
207	1.725	-211.798	12.2276	-3.8618	-216.77	-18.8571	3.52873	-222.415	-43.0175	-0.600107	-232.623	-63.5231	-0.884312	-224.599	-32.5695	-45.6535	-226.969	-47.7784	-24.02	-225.721	-24.797	-6.75911	-244.801	-32.9111	-42.5346	-246.718	-44.682	-16.9606	-237.918	-13.7288	-5.47606	-257.061	-27.1374	-31.2306	-255.096	-28.1092	-5.18707	-242.961	-3.5418	-4.26774	-271.924	-14.4085	-17.2228	-257.43	-9.7139	2.58376	-244.715	13.8208	-2.34709	-251.951	22.8253	-36.7562	-250.112	45.9723	-22.4896	-225.659	31.6752	-27.8567	
208	1.73333	-212.967	12.4066	-4.4423	-223.337	-18.5449	-3.39196	-229.135	-42.9291	-5.48305	-245.487	-62.5535	-8.30848	-235.93	-26.4077	-49.8352	-234.133	-45.4054	-28.5802	-230.428	-23.4938	-10.3871	-254.224	-24.2731	-46.1928	-252.366	-40.8479	-21.3095	-241.725	-10.311	-8.26639	-269.405	-19.333	-31.5963	-254.165	-24.7021	-7.38122	-245.409	1.36707	-5.56435	-273.123	-10.781	-17.995	-256.716	-7.28319	1.51416	-245.706	10.3084	-0.380848	-256.209	29.5751	-30.9668	-251.281	50.3638	-14.4231	-230.247	34.31	-27.237	
209	1.74167	-215.046	13.8361	-5.81917	-223.434	-15.9447	-5.5108	-235.749	-40.3283	-15.0599	-250.803	-54.8253	-18.1333	-237.577	-15.9403	-53.847	-241.041	-38.3968	-35.9321	-235.718	-18.5298	-13.9876	-260.016	-16.7046	-49.2569	-257.557	-37.0633	-25.8389	-241.465	-12.9142	-10.3528	-269.892	-13.2672	-35.6636	-259.189	-25.7018	-13.3376	-247.497	1.81187	-6.88762	-278.991	-6.14035	-16.5697	-262.526	-7.85209	2.21188	-248.118	14.8463	-1.86428	-260.133	35.4656	-28.1055	-249.881	50.5567	-12.1734	-231.822	40.7814	-24.207	
210	1.75	-216.796	15.5996	-8.68775	-225.214	-14.4528	-9.24702	-238.177	-33.5355	-18.9306	-254.528	-51.4095	-24.9486	-237.377	-13.68	-57.0225	-239.475	-34.8349	-37.7313	-237.889	-17.4132	-15.9762	-260.214	-12.625	-52.0452	-258.669	-33.9188	-35.3254	-247.031	-9.83177	-10.5393	-274.665	-9.45915	-35.8802	-262.654	-23.0658	-18.7984	-251.064	0.381717	-7.45589	-283.816	-3.16999	-19.0039	-265.274	-9.16594	-0.275719	-250.732	12.4685	-1.71715	-259.761	41.2497	-23.9596	-252.977	55.1404	-1.023	-233.044	41.4143	-23.5971	
211	1.75833	-218.53	15.5461	-5.19636	-229.368	-15.2641	-12.5266	-241.211	-35.4461	-21.159	-257.71	-45.7879	-25.3589	-238.275	-12.6078	-57.1097	-245.955	-32.2569	-40.5812	-242.085	-14.1621	-14.0392	-262.348	-6.75069	-53.0426	-263.639	-31.2725	-37.8967	-252.823	-11.5262	-9.65138	-277.11	-7.89807	-38.6866	-266.864	-20.804	-17.0209	-254.509	3.6739	-6.78167	-284.128	-1.94623	-21.9393	-271.147	-9.00921	-4.75556	-254.362	10.0584	-0.458783	-262.218	42.6342	-24.2883	-252.882	54.8692	-2.61235	-228.472	42.8393	-22.1234	
